<svg id="Camada_1" data-name="Camada 1" xmlns="http://www.w3.org/2000/svg" viewBox="0 0 230.82 393"><title>seta</title><path d="M201.25,408.73c-7.08-2.22-12.08-7.25-17.15-12.32Q100.71,312.92,17.2,229.58c-6.84-6.82-10-14.58-6.9-23.91a25.63,25.63,0,0,1,6.11-9.52Q102.82,109.47,189.48,23c9.71-9.69,22.25-9.67,32-.18,4.59,4.45,9.22,8.9,13.37,13.74A21,21,0,0,1,234.73,64c-1.16,1.36-2.42,2.64-3.69,3.9Q160.63,138.32,90.2,208.71a30.31,30.31,0,0,0-4.38,4.64c1.34.74,3,1.21,4,2.25Q161,286.63,232,357.74c8.83,8.84,10.6,21,3.32,29.31-7.41,8.43-14.38,17.7-25.66,21.68Z" transform="translate(-9.1 -15.73)"/></svg>